<svg width="60" height="61" viewBox="0 0 60 61" fill="none" xmlns="http://www.w3.org/2000/svg">
<circle cx="30" cy="30.2529" r="29" stroke="#F53838" stroke-width="2"/>
<path d="M38.75 29.0029H23.925L28.4625 23.5529C28.6747 23.2976 28.7768 22.9685 28.7463 22.638C28.7158 22.3075 28.5553 22.0026 28.3 21.7904C28.0447 21.5782 27.7156 21.4762 27.3851 21.5066C27.0546 21.5371 26.7497 21.6976 26.5375 21.9529L20.2875 29.4529C20.2455 29.5126 20.2078 29.5752 20.175 29.6404C20.175 29.7029 20.175 29.7404 20.0875 29.8029C20.0308 29.9462 20.0012 30.0988 20 30.2529C20.0012 30.407 20.0308 30.5596 20.0875 30.7029C20.0875 30.7654 20.0875 30.8029 20.175 30.8654C20.2078 30.9306 20.2455 30.9933 20.2875 31.0529L26.5375 38.5529C26.655 38.694 26.8022 38.8075 26.9686 38.8853C27.1349 38.963 27.3164 39.0032 27.5 39.0029C27.7921 39.0035 28.0751 38.9018 28.3 38.7154C28.4266 38.6105 28.5312 38.4816 28.6079 38.3362C28.6846 38.1907 28.7318 38.0316 28.7469 37.8679C28.762 37.7042 28.7447 37.5391 28.6959 37.3821C28.6471 37.2251 28.5678 37.0792 28.4625 36.9529L23.925 31.5029H38.75C39.0815 31.5029 39.3995 31.3712 39.6339 31.1368C39.8683 30.9024 40 30.5844 40 30.2529C40 29.9214 39.8683 29.6034 39.6339 29.369C39.3995 29.1346 39.0815 29.0029 38.75 29.0029Z" fill="#F53838"/>
</svg>
