<svg width="148" height="149" viewBox="0 0 148 149" fill="none" xmlns="http://www.w3.org/2000/svg">
<g filter="url(#filter0_d_11_50)">
<circle cx="74" cy="60.2529" r="30" fill="#F53838"/>
<circle cx="74" cy="60.2529" r="29" stroke="#F53838" stroke-width="2"/>
</g>
<path d="M65.25 59.0029H80.075L75.5375 53.5529C75.3253 53.2976 75.2232 52.9685 75.2537 52.638C75.2842 52.3075 75.4447 52.0026 75.7 51.7904C75.9553 51.5782 76.2844 51.4762 76.6149 51.5066C76.9454 51.5371 77.2503 51.6976 77.4625 51.9529L83.7125 59.4529C83.7545 59.5126 83.7922 59.5752 83.825 59.6404C83.825 59.7029 83.825 59.7404 83.9125 59.8029C83.9692 59.9462 83.9988 60.0988 84 60.2529C83.9988 60.407 83.9692 60.5596 83.9125 60.7029C83.9125 60.7654 83.9125 60.8029 83.825 60.8654C83.7922 60.9306 83.7545 60.9933 83.7125 61.0529L77.4625 68.5529C77.345 68.694 77.1978 68.8075 77.0314 68.8853C76.8651 68.963 76.6836 69.0032 76.5 69.0029C76.2079 69.0035 75.9249 68.9018 75.7 68.7154C75.5734 68.6105 75.4688 68.4816 75.3921 68.3362C75.3154 68.1907 75.2682 68.0316 75.2531 67.8679C75.238 67.7042 75.2553 67.5391 75.3041 67.3821C75.3529 67.2251 75.4322 67.0792 75.5375 66.9529L80.075 61.5029H65.25C64.9185 61.5029 64.6005 61.3712 64.3661 61.1368C64.1317 60.9024 64 60.5844 64 60.2529C64 59.9214 64.1317 59.6034 64.3661 59.369C64.6005 59.1346 64.9185 59.0029 65.25 59.0029Z" fill="white"/>
<defs>
<filter id="filter0_d_11_50" x="0" y="0.25293" width="148" height="148" filterUnits="userSpaceOnUse" color-interpolation-filters="sRGB">
<feFlood flood-opacity="0" result="BackgroundImageFix"/>
<feColorMatrix in="SourceAlpha" type="matrix" values="0 0 0 0 0 0 0 0 0 0 0 0 0 0 0 0 0 0 127 0" result="hardAlpha"/>
<feOffset dy="14"/>
<feGaussianBlur stdDeviation="22"/>
<feColorMatrix type="matrix" values="0 0 0 0 0.0561111 0 0 0 0 0.0777333 0 0 0 0 0.133333 0 0 0 0.08 0"/>
<feBlend mode="normal" in2="BackgroundImageFix" result="effect1_dropShadow_11_50"/>
<feBlend mode="normal" in="SourceGraphic" in2="effect1_dropShadow_11_50" result="shape"/>
</filter>
</defs>
</svg>
